<svg xmlns="http://www.w3.org/2000/svg" xmlns:xlink="http://www.w3.org/1999/xlink" width="200" zoomAndPan="magnify" viewBox="0 0 150 86.249997" height="115" preserveAspectRatio="xMidYMid meet" version="1.0"><defs><g/></defs><g fill="#000000" fill-opacity="1"><g transform="translate(83.313061, 25.955955)"><g><path d="M 6.09375 -10.40625 L 6.40625 -10.40625 C 8.050781 -10.40625 9.585938 -9.90625 11.015625 -8.90625 C 11.597656 -8.34375 11.890625 -7.800781 11.890625 -7.28125 C 11.890625 -6.113281 10.664062 -4.332031 8.21875 -1.9375 C 6.925781 -0.988281 5.632812 -0.238281 4.34375 0.3125 C 2.863281 0.75 1.953125 1.101562 1.609375 1.375 L 0.921875 1.3125 C 0.148438 1.6875 -0.328125 1.875 -0.515625 1.875 L -0.578125 1.8125 L -0.390625 1.5 L -0.453125 1.5 L -0.828125 1.625 L -0.890625 1.25 L -0.765625 1 L -0.828125 1 L -1.125 1.125 L -1.203125 1.0625 L -1.203125 1 L -1.125 0.8125 L -1.203125 0.8125 L -1.453125 0.875 C -1.578125 0.875 -1.640625 0.789062 -1.640625 0.625 C -1.835938 0.59375 -1.9375 0.53125 -1.9375 0.4375 C -1.757812 0.238281 -1.488281 0.0703125 -1.125 -0.0625 C -0.414062 -0.601562 0.554688 -2.304688 1.796875 -5.171875 C 2.546875 -6.890625 2.921875 -7.867188 2.921875 -8.109375 C 2.160156 -8.109375 1.578125 -8.601562 1.171875 -9.59375 C 1.171875 -9.945312 2.8125 -10.21875 6.09375 -10.40625 Z M 3.359375 -2.046875 C 6.890625 -3.691406 8.65625 -5.253906 8.65625 -6.734375 C 8.65625 -7.691406 7.882812 -8.289062 6.34375 -8.53125 C 6.039062 -8.53125 5.8125 -8.160156 5.65625 -7.421875 Z M 3.359375 -2.046875 "/></g></g></g><g fill="#000000" fill-opacity="1"><g transform="translate(94.240655, 25.955955)"><g><path d="M 3.6875 -10.390625 L 4.078125 -10.390625 C 4.878906 -10.390625 5.5 -10.035156 5.9375 -9.328125 L 5.9375 -9.0625 C 5.9375 -8.9375 5.519531 -8.1875 4.6875 -6.8125 L 1.765625 -0.765625 C 1.390625 -0.0664062 1.125 0.328125 0.96875 0.421875 L 0.90625 0.359375 L 0.828125 0.359375 L 0.703125 0.6875 L 0.5625 0.6875 L 0.703125 0.21875 L -0.03125 1.421875 L -0.09375 1.421875 L -0.15625 1.359375 L -0.15625 1.28125 L -0.09375 1.21875 L -0.09375 1.09375 L -0.15625 1.09375 L -0.421875 1.6875 L -0.5625 1.6875 L -0.5625 1.609375 L -0.421875 1.28125 L -1.484375 2.140625 L -1.6875 2.015625 L -1.625 1.9375 L -1.625 1.75 L -1.828125 1.875 L -1.953125 1.75 C -1.953125 1.164062 -0.359375 -2.613281 2.828125 -9.59375 C 3.015625 -10.125 3.300781 -10.390625 3.6875 -10.390625 Z M 2.40625 -1.75 L 2.40625 -1.65625 L 2.46875 -1.65625 L 2.46875 -1.75 Z M 2.40625 -1.75 "/></g></g></g><g fill="#000000" fill-opacity="1"><g transform="translate(98.970193, 25.955955)"><g><path d="M 9.03125 -10.40625 L 9.234375 -10.40625 C 10.453125 -10.40625 11.296875 -9.878906 11.765625 -8.828125 C 11.648438 -7.867188 11.488281 -7.390625 11.28125 -7.390625 L 11.21875 -7.390625 C 10.925781 -7.390625 10.445312 -7.53125 9.78125 -7.8125 L 8.421875 -7.9375 C 5.941406 -7.9375 3.847656 -6.914062 2.140625 -4.875 C 1.410156 -3.882812 1.046875 -2.816406 1.046875 -1.671875 C 1.046875 -1.035156 1.523438 -0.71875 2.484375 -0.71875 C 3.054688 -0.71875 3.875 -0.898438 4.9375 -1.265625 L 4.9375 -1.328125 L 4.875 -1.328125 L 2.890625 -1.1875 C 2.890625 -1.3125 2.707031 -1.472656 2.34375 -1.671875 L 2.40625 -1.734375 L 2.40625 -1.8125 L 2.015625 -1.8125 L 2.015625 -1.9375 L 2.40625 -2.015625 L 2.40625 -2.078125 L 1.875 -2.140625 L 1.875 -2.28125 L 2.078125 -2.28125 L 2.078125 -2.34375 L 1.734375 -2.34375 L 1.734375 -2.421875 L 1.875 -2.625 C 1.550781 -2.625 1.390625 -2.671875 1.390625 -2.765625 C 1.390625 -3.066406 4.1875 -3.703125 9.78125 -4.671875 C 10.300781 -4.671875 10.6875 -4.351562 10.9375 -3.71875 L 11.015625 -3.5 C 11.015625 -3.03125 10.691406 -2.535156 10.046875 -2.015625 C 10.046875 -1.566406 8.910156 -0.65625 6.640625 0.71875 C 5.578125 1.3125 4.53125 1.609375 3.5 1.609375 L 2.890625 1.609375 C 0.847656 1.609375 -0.515625 0.5625 -1.203125 -1.53125 L -1.265625 -2.140625 L -1.265625 -2.5625 C -1.265625 -4.195312 0.00390625 -6.171875 2.546875 -8.484375 C 4.429688 -9.765625 6.59375 -10.40625 9.03125 -10.40625 Z M 9.03125 -10.40625 "/></g></g></g><g fill="#000000" fill-opacity="1"><g transform="translate(109.617044, 25.955955)"><g><path d="M 3.6875 -10.390625 L 4.078125 -10.390625 C 4.878906 -10.390625 5.5 -10.035156 5.9375 -9.328125 L 5.9375 -9.0625 C 5.9375 -8.9375 5.519531 -8.1875 4.6875 -6.8125 L 1.765625 -0.765625 C 1.390625 -0.0664062 1.125 0.328125 0.96875 0.421875 L 0.90625 0.359375 L 0.828125 0.359375 L 0.703125 0.6875 L 0.5625 0.6875 L 0.703125 0.21875 L -0.03125 1.421875 L -0.09375 1.421875 L -0.15625 1.359375 L -0.15625 1.28125 L -0.09375 1.21875 L -0.09375 1.09375 L -0.15625 1.09375 L -0.421875 1.6875 L -0.5625 1.6875 L -0.5625 1.609375 L -0.421875 1.28125 L -1.484375 2.140625 L -1.6875 2.015625 L -1.625 1.9375 L -1.625 1.75 L -1.828125 1.875 L -1.953125 1.75 C -1.953125 1.164062 -0.359375 -2.613281 2.828125 -9.59375 C 3.015625 -10.125 3.300781 -10.390625 3.6875 -10.390625 Z M 2.40625 -1.75 L 2.40625 -1.65625 L 2.46875 -1.65625 L 2.46875 -1.75 Z M 2.40625 -1.75 "/></g></g></g><g fill="#000000" fill-opacity="1"><g transform="translate(114.346581, 25.955955)"><g><path d="M 7.078125 -11.125 L 8.375 -11.0625 L 9.65625 -11.0625 C 9.90625 -11.0625 10.085938 -10.945312 10.203125 -10.71875 L 10.140625 -10.65625 C 10.359375 -10.632812 10.46875 -10.566406 10.46875 -10.453125 L 10.46875 -10.375 L 9.734375 -10.375 L 9.734375 -10.3125 L 10 -10.3125 L 10 -10.171875 L 9.859375 -10.171875 L 9.9375 -10.109375 L 9.859375 -10.046875 L 9.859375 -9.90625 L 10.203125 -9.84375 L 10.203125 -9.765625 L 10.140625 -9.703125 L 10.140625 -9.625 C 10.410156 -9.625 10.546875 -9.445312 10.546875 -9.09375 C 10.722656 -9.0625 10.8125 -8.992188 10.8125 -8.890625 L 10.8125 -8.75 L 6.8125 -8.28125 C 6.46875 -8.28125 6.195312 -7.847656 6 -6.984375 C 3.601562 -2.328125 2.171875 0.640625 1.703125 1.921875 C 1.429688 2.191406 1.207031 2.328125 1.03125 2.328125 L 0.75 2.046875 C 0.488281 2.046875 0.359375 1.9375 0.359375 1.71875 L 0.28125 1.78125 L 0.21875 1.78125 C 0.207031 1.664062 -0.0195312 1.460938 -0.46875 1.171875 L -0.671875 0.828125 C -0.671875 -0.0859375 0.414062 -2.507812 2.59375 -6.4375 L 3.140625 -7.734375 L 0.625 -7.328125 C -0.332031 -7.328125 -0.96875 -7.753906 -1.28125 -8.609375 L -1.484375 -9.421875 L -1.484375 -9.5625 C -1.484375 -9.851562 -1.300781 -10.125 -0.9375 -10.375 L -0.0625 -10.375 C 1.363281 -10.375 3.742188 -10.625 7.078125 -11.125 Z M 7.078125 -11.125 "/></g></g></g><g fill="#000000" fill-opacity="1"><g transform="translate(120.630131, 25.955955)"><g><path d="M 6.46875 -10.46875 C 7.625 -10.46875 8.332031 -10.125 8.59375 -9.4375 C 8.75 -8.832031 8.929688 -7.625 9.140625 -5.8125 L 9.203125 -5.75 C 9.222656 -5.46875 9.285156 -5.328125 9.390625 -5.328125 L 11.328125 -5.5625 L 11.328125 -5.4375 L 11.390625 -5.4375 L 12.359375 -5.5 L 12.359375 -5.390625 L 11.921875 -5.265625 L 11.921875 -5.203125 L 12.359375 -5.203125 L 12.78125 -5.265625 L 12.78125 -5.140625 C 12.363281 -4.972656 12.039062 -4.890625 11.8125 -4.890625 L 11.8125 -4.78125 L 12.109375 -4.84375 C 12.390625 -4.757812 12.53125 -4.675781 12.53125 -4.59375 L 12.84375 -4.65625 C 13.644531 -4.632812 14.046875 -4.554688 14.046875 -4.421875 L 13.984375 -4.359375 L 14.40625 -4.234375 L 14.40625 -4.109375 C 13.863281 -3.828125 12.734375 -3.585938 11.015625 -3.390625 L 9.9375 -3.203125 C 10.457031 -1.148438 10.71875 0.242188 10.71875 0.984375 L 10.71875 1.21875 L 10.53125 1.40625 L 10.46875 1.40625 C 10.332031 1.40625 10.191406 1.34375 10.046875 1.21875 L 10.046875 1.40625 L 9.9375 1.40625 L 9.9375 1.28125 L 9.75 1.40625 L 9.5 1.21875 L 8.90625 1.46875 L 8.40625 0.984375 C 8.207031 0.648438 7.90625 -0.539062 7.5 -2.59375 L 7.453125 -2.59375 C 4.898438 -1.894531 3.625 -1.347656 3.625 -0.953125 C 3.46875 -0.859375 2.984375 -0.234375 2.171875 0.921875 C 1.890625 1.242188 1.664062 1.40625 1.5 1.40625 L 1.390625 1.109375 L 1.328125 1.15625 L 1.265625 1.15625 C 1.023438 1.007812 0.90625 0.847656 0.90625 0.671875 L 0.84375 0.734375 L 0.71875 0.734375 L 0.71875 0.609375 C 0.550781 0.609375 0.390625 0.488281 0.234375 0.25 C 0.078125 0.25 0 0.207031 0 0.125 L 0 -0.296875 C 0 -0.742188 0.484375 -1.488281 1.453125 -2.53125 C 1.859375 -3.21875 2.523438 -4.171875 3.453125 -5.390625 L 5.515625 -9.015625 L 5.921875 -10.234375 C 6.140625 -10.390625 6.320312 -10.46875 6.46875 -10.46875 Z M 6 -4.59375 L 6 -4.53125 C 6.675781 -4.707031 7.015625 -4.828125 7.015625 -4.890625 L 6.84375 -5.875 C 6.726562 -5.820312 6.445312 -5.394531 6 -4.59375 Z M 11.625 -5.625 L 11.75 -5.625 L 11.75 -5.5 L 11.625 -5.5 Z M 11.6875 -5.203125 L 11.6875 -5.140625 L 11.8125 -5.140625 L 11.8125 -5.203125 Z M 11.6875 -5.203125 "/></g></g></g><g fill="#000000" fill-opacity="1"><g transform="translate(131.716096, 25.955955)"><g><path d="M 5.296875 -11.34375 L 5.6875 -11.34375 C 6.800781 -10.925781 7.359375 -10.390625 7.359375 -9.734375 C 7.066406 -9.265625 5.910156 -6.847656 3.890625 -2.484375 L 3.375 -1.59375 L 7.359375 -1.84375 L 7.859375 -1.78125 L 8.25 -1.78125 L 8.25 -1.65625 L 8.0625 -1.65625 L 8.0625 -1.46875 L 8.4375 -1.46875 L 8.4375 -1.328125 L 7.796875 -1.015625 L 7.921875 -0.640625 L 8.3125 -0.640625 L 8.890625 -0.046875 C 8.890625 0.0664062 7.628906 0.296875 5.109375 0.640625 C 4.035156 0.859375 2.582031 1.226562 0.75 1.75 L 0.6875 1.75 C 0.445312 1.75 0.0390625 1.40625 -0.53125 0.71875 L -0.53125 0.640625 L -0.46875 0.59375 L -0.53125 0.53125 L -0.53125 -0.109375 C -0.53125 -0.328125 -0.335938 -0.585938 0.046875 -0.890625 C 2.054688 -4.617188 3.507812 -7.78125 4.40625 -10.375 L 4.328125 -10.5625 C 4.597656 -11.082031 4.921875 -11.34375 5.296875 -11.34375 Z M 5.296875 -11.34375 "/></g></g></g><g fill="#000000" fill-opacity="1"><g transform="translate(9.730978, 51.966456)"><g><path d="M 19.15625 -32.71875 L 20.15625 -32.71875 C 25.332031 -32.71875 30.160156 -31.148438 34.640625 -28.015625 C 36.472656 -26.242188 37.390625 -24.546875 37.390625 -22.921875 C 37.390625 -19.234375 33.539062 -13.613281 25.84375 -6.0625 C 21.789062 -3.09375 17.734375 -0.738281 13.671875 1 C 9.023438 2.351562 6.148438 3.460938 5.046875 4.328125 L 2.90625 4.125 C 0.46875 5.300781 -1.035156 5.890625 -1.609375 5.890625 L -1.8125 5.6875 L -1.21875 4.703125 L -1.40625 4.703125 L -2.578125 5.09375 L -2.78125 3.921875 L -2.40625 3.140625 L -2.578125 3.140625 L -3.5625 3.53125 L -3.765625 3.328125 L -3.765625 3.140625 L -3.5625 2.5625 L -3.765625 2.5625 L -4.546875 2.765625 C -4.941406 2.765625 -5.140625 2.5 -5.140625 1.96875 C -5.785156 1.875 -6.109375 1.675781 -6.109375 1.375 C -5.535156 0.757812 -4.6875 0.238281 -3.5625 -0.1875 C -1.320312 -1.882812 1.742188 -7.242188 5.640625 -16.265625 C 7.992188 -21.679688 9.171875 -24.75 9.171875 -25.46875 C 6.796875 -25.46875 4.96875 -27.03125 3.6875 -30.15625 C 3.6875 -31.257812 8.84375 -32.113281 19.15625 -32.71875 Z M 10.546875 -6.453125 C 21.648438 -11.628906 27.203125 -16.53125 27.203125 -21.15625 C 27.203125 -24.1875 24.785156 -26.078125 19.953125 -26.828125 C 18.984375 -26.828125 18.265625 -25.660156 17.796875 -23.328125 Z M 10.546875 -6.453125 "/></g></g></g><g fill="#000000" fill-opacity="1"><g transform="translate(44.098218, 51.966456)"><g><path d="M 18.046875 -33.9375 L 20.078125 -33.9375 L 20.265625 -33.765625 L 20.453125 -33.9375 L 20.625 -33.9375 C 24.5625 -33.320312 26.53125 -32.644531 26.53125 -31.90625 C 27.351562 -31.300781 27.90625 -30.566406 28.1875 -29.703125 L 28.1875 -29.328125 L 28.015625 -29.140625 C 28.515625 -27.679688 28.765625 -26.515625 28.765625 -25.640625 L 28.765625 -25.09375 C 28.765625 -23.644531 26.484375 -21.863281 21.921875 -19.75 L 21.921875 -19.359375 C 23.898438 -18.472656 24.890625 -16.507812 24.890625 -13.46875 L 24.890625 -11.078125 C 22.472656 -8.128906 17.238281 -5.296875 9.1875 -2.578125 C 3.8125 -0.859375 -0.117188 0 -2.609375 0 L -4.640625 -1.65625 L -4.453125 -1.828125 L -4.453125 -2.578125 C -4.941406 -2.578125 -5.1875 -2.828125 -5.1875 -3.328125 C -5.425781 -3.328125 -5.546875 -3.628906 -5.546875 -4.234375 L -6.109375 -4.234375 L -6.109375 -4.4375 L -5.9375 -4.625 L -5.9375 -4.796875 L -6.296875 -5.15625 L -6.296875 -5.34375 L -5.75 -5.34375 L -5.75 -5.53125 L -5.9375 -5.734375 L -5.9375 -5.90625 L -5.359375 -6.09375 L -5.546875 -6.265625 L -5.546875 -6.453125 L -5.359375 -6.640625 L -5.1875 -6.640625 L -4.640625 -6.453125 C -1.171875 -6.453125 5.46875 -8.601562 15.28125 -12.90625 C 15.28125 -13.195312 15.59375 -13.382812 16.21875 -13.46875 L 16.21875 -13.65625 L 15.46875 -13.828125 L 6.796875 -13.296875 C 5.046875 -13.296875 3.691406 -14.828125 2.734375 -17.890625 L 2.203125 -18.8125 C 2.203125 -19.707031 4.84375 -20.941406 10.125 -22.515625 L 19.546875 -26.75 L 19.546875 -26.921875 L 19.15625 -26.921875 C 16.875 -26.921875 13.25 -26 8.28125 -24.15625 L 7.90625 -24.15625 C 6.925781 -24.15625 5.882812 -25.207031 4.78125 -27.3125 C 4.40625 -27.925781 4.21875 -28.535156 4.21875 -29.140625 L 4.21875 -29.328125 C 4.21875 -30.816406 6.4375 -31.984375 10.875 -32.828125 C 12.988281 -33.566406 15.378906 -33.9375 18.046875 -33.9375 Z M 18.046875 -33.9375 "/></g></g></g><g fill="#000000" fill-opacity="1"><g transform="translate(59.629537, 65.477177)"><g><path d="M 22.9375 -34.03125 C 24.738281 -34.03125 25.878906 -33.570312 26.359375 -32.65625 C 26.890625 -32.65625 27.15625 -32.238281 27.15625 -31.40625 C 27.15625 -29.914062 24.609375 -24.035156 19.515625 -13.765625 C 17.328125 -9.285156 13.648438 -4.128906 8.484375 1.703125 C 5.390625 4.640625 1.445312 6.109375 -3.34375 6.109375 C -6.988281 6.109375 -9.535156 4.296875 -10.984375 0.671875 C -11.253906 0.160156 -11.390625 -0.578125 -11.390625 -1.546875 L -11.390625 -2.734375 C -11.191406 -7.097656 -10.1875 -11.175781 -8.375 -14.96875 L -7.96875 -14.96875 C -6.894531 -14.019531 -6.300781 -13.144531 -6.1875 -12.34375 C -5.914062 -12.34375 -5.78125 -12.546875 -5.78125 -12.953125 L -5.390625 -12.953125 L -5.390625 -11.546875 C -5.097656 -11.546875 -4.953125 -11.882812 -4.953125 -12.5625 L -4.75 -12.75 L -4.546875 -12.75 L -4.375 -12.15625 C -3.914062 -12.15625 -3.4375 -13.03125 -2.9375 -14.78125 L -2.15625 -14.96875 C -2.15625 -14.164062 -1.957031 -13.765625 -1.5625 -13.765625 L -1.5625 -14.15625 L -1.15625 -14.15625 L -2.359375 -2.921875 L -1.96875 -0.90625 L -1.5625 -0.90625 C 0.414062 -1.488281 3.289062 -4.632812 7.0625 -10.34375 C 10.351562 -15.519531 13.640625 -22.082031 16.921875 -30.03125 C 16.921875 -32.113281 18.925781 -33.445312 22.9375 -34.03125 Z M 22.9375 -34.03125 "/></g></g></g></svg>